<svg xmlns="http://www.w3.org/2000/svg" viewBox="0 0 262.75 214.88"><defs><style>.cls-1,.cls-11,.cls-2,.cls-8{isolation:isolate;}.cls-2,.cls-8{font-size:36px;fill:#e96200;font-family:MyriadPro-Bold, Myriad Pro;font-weight:700;}.cls-2{letter-spacing:-0.01em;}.cls-3{letter-spacing:-0.01em;}.cls-4{letter-spacing:0em;}.cls-5{letter-spacing:-0.04em;}.cls-6{letter-spacing:-0.11em;}.cls-7{letter-spacing:0em;}.cls-9{letter-spacing:0.02em;}.cls-10{fill:none;}.cls-11{font-size:21px;fill:#6e6e6e;font-family:TimesNewRomanPS-ItalicMT, Times New Roman;font-style:italic;}.cls-12{letter-spacing:-0.04em;}.cls-13{fill:#51332b;}.cls-14{fill:#d0f8f0;}.cls-15{fill:#232124;}.cls-16{fill:#fece9a;}.cls-17{fill:#e3e3e3;}.cls-18{fill:#2899c6;}.cls-19{fill:#302721;}.cls-20{fill:#6ecece;opacity:0.5;}.cls-21{opacity:0.9;}.cls-22{fill:#876451;}.cls-23{fill:#775444;}.cls-24{fill:#efefef;}</style></defs><title>message</title><g id="Layer_2" data-name="Layer 2"><g id="Layer_1-2" data-name="Layer 1"><g class="cls-1"><text class="cls-2" transform="translate(3.46 30.13)">A<tspan class="cls-3" x="23.4" y="0">r</tspan><tspan class="cls-4" x="36.79" y="0">e</tspan><tspan class="cls-5" x="55.8" y="0"> </tspan><tspan class="cls-6" x="61.63" y="0">Y</tspan><tspan class="cls-7" x="79.42" y="0">ou</tspan></text><text class="cls-8" transform="translate(3.46 73.33)">Hung<tspan class="cls-9" x="87.95" y="0">r</tspan><tspan class="cls-4" x="102.27" y="0">y ?</tspan></text></g><rect class="cls-10" y="82.96" width="246" height="129.5"/><g class="cls-1"><text class="cls-11" transform="translate(0.82 107.64)">F<tspan class="cls-12" x="12.83" y="0">r</tspan><tspan x="20.22" y="0" xml:space="preserve">om the moment  you </tspan></text><text class="cls-11" transform="translate(0.82 132.84)">arrive at FoodShala,we&apos;ll</text><text class="cls-11" transform="translate(0.82 158.04)">ensu<tspan class="cls-12" x="38.49" y="0">r</tspan><tspan x="45.89" y="0">e the standa</tspan><tspan class="cls-12" x="147.37" y="0">r</tspan><tspan x="154.76" y="0">d of</tspan></text><text class="cls-11" transform="translate(0.82 183.24)">taste you <tspan class="cls-12" x="80.48" y="0">r</tspan><tspan x="87.88" y="0">eceive is </tspan></text><text class="cls-11" transform="translate(0.82 208.44)">exceptional.</text></g><polygon class="cls-13" points="215.81 166.53 221.91 166.53 220.5 210.13 217.21 210.13 215.81 166.53"/><polygon class="cls-13" points="256.65 166.53 262.75 166.53 261.34 210.13 258.06 210.13 256.65 166.53"/><rect class="cls-14" x="209.71" y="158.08" width="50.49" height="8.44"/><rect class="cls-13" x="256.65" y="97.57" width="6.1" height="68.96"/><path class="cls-15" d="M233.32,54.12c-2.06,3.48,15.92,3.55,20,4.1a6.12,6.12,0,0,1,5.13,3.88c6.25-1.36.6,16.21-1,20.69S249.26,88,249.26,88l1.18-7.64s5.26-3.26,3.72-5.9c-1.29-2.24-4.48.24-4.48.24s-.68-8.12-3.74-9.48-11.59-1.78-11.59-1.78C224.88,58.19,233.32,54.12,233.32,54.12Z"/><path class="cls-16" d="M234.35,63.4s8.54.42,11.59,1.78,3.74,9.48,3.74,9.48,3.16-2.55,4.48-.24c1.47,2.56-3.72,5.9-3.72,5.9L249.26,88l.74,4.85-7.44,1.08a25.34,25.34,0,0,0-1-6.1c-4.42-.31-9.3-1.09-10.47-3C228.8,81.12,234.35,63.4,234.35,63.4Z"/><path class="cls-17" d="M249.47,91.64s6.45,3.77,8.94,13.69-.15,26.63-4.47,36.16H232.61s-1.47-32.55,9.68-47.65Z"/><path class="cls-18" d="M253.94,141.49s2.11,15-8.06,16.19c0,0-34.82,1.52-35.86,3.25s-9.52,45.75-9.52,45.75l-14.77-3.36s10.11-52.45,14.77-54.88,32.11-6.95,32.11-6.95Z"/><path class="cls-19" d="M198.62,206.25s1.36,4.8-2.22,5.29c-.44.05-20,0-20,0s-.08-2.29,4.43-4.11a28.64,28.64,0,0,0,6.79-3.67Z"/><polygon class="cls-20" points="225.27 75.12 215.92 86.26 220.71 91.08 231.9 81.8 225.27 75.12"/><g class="cls-21"><path class="cls-22" d="M227.48,79.56h0l-2.82-2.84-6.6,8s-.78,1.35,1.06,3.2h0C221,89.72,222.31,89,222.31,89l8-6.55Z"/></g><path class="cls-23" d="M225.26,78.52a.21.21,0,0,1-.3-.3.21.21,0,1,1,.3.3Z"/><path class="cls-23" d="M225.27,80a.31.31,0,0,1-.44-.44.31.31,0,0,1,.44,0A.3.3,0,0,1,225.27,80Z"/><path class="cls-23" d="M222.93,80.84a.23.23,0,0,1-.31,0,.21.21,0,0,1,0-.3.2.2,0,0,1,.3,0A.22.22,0,0,1,222.93,80.84Z"/><path class="cls-23" d="M223.67,82.8a.31.31,0,1,1,0-.44A.31.31,0,0,1,223.67,82.8Z"/><path class="cls-23" d="M227.69,81.27a.22.22,0,0,1-.3,0,.21.21,0,0,1,0-.31.22.22,0,0,1,.3,0A.21.21,0,0,1,227.69,81.27Z"/><path class="cls-23" d="M227.18,83.71a.31.31,0,1,1,0-.44A.31.31,0,0,1,227.18,83.71Z"/><path class="cls-23" d="M223.63,86.36a.3.3,0,0,1-.43,0,.31.31,0,0,1,0-.44.3.3,0,0,1,.43,0A.31.31,0,0,1,223.63,86.36Z"/><path class="cls-23" d="M221.26,84.28a.21.21,0,0,1-.3-.3.21.21,0,0,1,.31,0A.21.21,0,0,1,221.26,84.28Z"/><path class="cls-23" d="M221,86.8a.31.31,0,0,1-.44,0,.29.29,0,0,1,0-.43.3.3,0,0,1,.43.43Z"/><path class="cls-23" d="M225.81,84.51a.22.22,0,0,1-.31,0,.22.22,0,0,1,0-.3.22.22,0,0,1,.31.31Z"/><path class="cls-16" d="M220.54,87.51c1.46-2,2.53-1.83,2.57-1.43s-.85,1.15-1.72,3.61a10.68,10.68,0,0,1-1.46,2.64l-5.18-.68a27.94,27.94,0,0,1,.91-10.13c.76-2.09,4.88-1.27,5.36-.38.73,1.37-.44,4.7-.78,5.91S220.54,87.51,220.54,87.51Z"/><path class="cls-24" d="M245.29,96.17l-23.91,8.61q.57-7.07,1.12-14.12l-9.91-1.06q-.9,11.25-1.79,22.48c-.24,3.11,3.41,5.88,6.33,4.83L248,105.81C254,103.64,251.37,94,245.29,96.17Z"/></g></g></svg>