<?xml version="1.0" encoding="utf-8"?>
<!-- Generator: Adobe Illustrator 22.1.0, SVG Export Plug-In . SVG Version: 6.00 Build 0)  -->
<svg version="1.1" id="Layer_1" xmlns="http://www.w3.org/2000/svg" xmlns:xlink="http://www.w3.org/1999/xlink" x="0px" y="0px"
	 viewBox="0 0 1481.7 787.1" style="enable-background:new 0 0 1481.7 787.1;" xml:space="preserve">
<style type="text/css">
	.st0{fill:url(#SVGID_1_);}
	.st1{clip-path:url(#SVGID_4_);}
	.st2{fill:url(#SVGID_5_);}
	.st3{fill:url(#SVGID_6_);}
	.st4{fill:#FF8800;}
	.st5{fill:#FF9900;}
	.st6{clip-path:url(#SVGID_9_);}
</style>
<title>banner</title>
<g>
	<g>
		
			<linearGradient id="SVGID_1_" gradientUnits="userSpaceOnUse" x1="-43.9656" y1="0.8239" x2="496.0096" y2="0.8239" gradientTransform="matrix(1 0 0 -1 0 788)">
			<stop  offset="0" style="stop-color:#DDD70E"/>
			<stop  offset="0.7892" style="stop-color:#FF3300"/>
		</linearGradient>
		<path id="SVGID_2_" class="st0" d="M483.2,834.9c32.3-63.7-2.8-104.4-35.6-107.7c-46.5-4.8-57.9,23.4-81-61.8
			c-7.8-28.9-25.3-55.1-49.4-64.6c-17.7-7-37.8-4-52.6,8c-8.5,6.8-15.3,16.3-23.2,24.2s-17.6,14.2-27.7,13
			c-9.7-1.1-18.1-9.1-24.6-18.1c-15.7-21.5-23.7-50.4-40.9-70.3c-14.6-16.8-36.3-28.8-56.5-27.2c-26.4,2.1-48.1,25.7-65.5,48.1
			C5.7,604.7-10.3,636-21.5,669.6c-14.4,43-21.2,89.5-22.3,136c-1,41.4,2.4,83.3,13.7,122.3c17.9,61.6,65.2,135.9,125.6,111.4
			c72.7-29.5,47.4-123.8,101.4-73.1c32.3,30.3,99.5,53.6,126.8-45.7S436.7,926.6,483.2,834.9z"/>
	</g>
	<g>
		<defs>
			<path id="SVGID_3_" d="M483.2,834.9c32.3-63.7-2.8-104.4-35.6-107.7c-46.5-4.8-57.9,23.4-81-61.8c-7.8-28.9-25.3-55.1-49.4-64.6
				c-17.7-7-37.8-4-52.6,8c-8.5,6.8-15.3,16.3-23.2,24.2s-17.6,14.2-27.7,13c-9.7-1.1-18.1-9.1-24.6-18.1
				c-15.7-21.5-23.7-50.4-40.9-70.3c-14.6-16.8-36.3-28.8-56.5-27.2c-26.4,2.1-48.1,25.7-65.5,48.1C5.7,604.7-10.3,636-21.5,669.6
				c-14.4,43-21.2,89.5-22.3,136c-1,41.4,2.4,83.3,13.7,122.3c17.9,61.6,65.2,135.9,125.6,111.4c72.7-29.5,47.4-123.8,101.4-73.1
				c32.3,30.3,99.5,53.6,126.8-45.7S436.7,926.6,483.2,834.9z"/>
		</defs>
		<clipPath id="SVGID_4_">
			<use xlink:href="#SVGID_3_"  style="overflow:visible;"/>
		</clipPath>
		<g class="st1">
			
				<linearGradient id="SVGID_5_" gradientUnits="userSpaceOnUse" x1="-16.2593" y1="137.2086" x2="469.6424" y2="137.2086" gradientTransform="matrix(1 0 0 -1 0 788)">
				<stop  offset="0" style="stop-color:#DDD70E"/>
				<stop  offset="0.7892" style="stop-color:#FF3300"/>
			</linearGradient>
			<path class="st2" d="M467.5,752.9c12,68.1-29,90.3-58.6,80.6c-41.9-13.7-44.7-42.7-86.5,23c-14.2,22.3-36.1,38.5-59.7,37.6
				c-17-0.7-33.7-10.6-44-27.2c-5.7-9.3-9.3-20.2-14.2-30s-11.8-19.2-20.9-22c-8.8-2.7-18.1,1-26.1,6.4
				c-19.2,12.9-33.5,35-53.7,45.8c-17,9.1-39.1,11.3-56.3,2.1C24.9,857.2,12,828.3,2.4,802c-11.2-30.8-17.2-64.4-18.4-98
				c-1.6-43.3,4.3-86.5,15.1-127.6c9.6-36.6,23.3-71.9,43.1-101.7c31.3-47,91.7-93.9,138.2-49.3c56.1,53.7,10,126.5,70.1,102.9
				c36-14.1,100.7-8.7,99.3,88.6S450.1,654.8,467.5,752.9z"/>
			
				<linearGradient id="SVGID_6_" gradientUnits="userSpaceOnUse" x1="36.9787" y1="255.9721" x2="499.7331" y2="255.9721" gradientTransform="matrix(1 0 0 -1 0 788)">
				<stop  offset="0" style="stop-color:#DDD70E"/>
				<stop  offset="0.7892" style="stop-color:#FF3300"/>
			</linearGradient>
			<path class="st3" d="M499,738.7c-7.5,70.6-53.3,74.6-79,52.8c-36.5-30.9-31-60-89.8-14.5c-20,15.5-45.6,21.8-68,10.9
				c-16.1-7.8-29.5-24.5-34.7-44.8c-2.9-11.3-3.3-23.3-5.2-34.9s-6-23.5-14-30.1c-7.7-6.4-17.7-6.7-26.9-4.9
				c-22.1,4.3-42.1,19.5-64.6,21.4c-18.9,1.5-40.8-5.7-54.8-21.8c-18.4-21.1-22.7-54.4-24.5-83.8c-1.9-34.4,1.4-68.8,9.8-102.2
				c10.6-42.2,28.4-81.4,50.3-116.3c19.5-31.1,42.6-59.4,70.1-79.6c43.4-32,114.6-51.6,146.9,11.1c38.9,75.4-25.9,126,38.6,128.7
				c38.6,1.6,99.4,34.2,70.7,127.3S509.9,636.9,499,738.7z"/>
		</g>
	</g>
</g>
<path class="st4" d="M542.9-48.4c-72,30.6-19.2,56,38.3,61.2c81.4,7.4,108.1-6.4,129.3,41.4c7.2,16.2,32.1,32,72.8,39.6
	c29.3,5.5,65.2,6.2,95.1,1.2c16.6-2.8,31-7.1,46.8-10.4s34.6-5.7,52.2-4c13.9,1.2,27.3,5.3,39.5,12.2c22.8,13.1,30.3,29.4,56.4,41.8
	c22,10.5,57.7,19.2,93.9,20.4c47.4,1.6,91.2-8.7,127.4-18.8c42.3-11.9,77.8-26.9,105.5-43.7c35.4-21.4,58.2-45.5,71-70.2
	c11.4-22,15-44.7,3.9-66.6c-17.5-34.7-84.3-79.3-197-72.6c-135.7,8.1-112.8,61-196.8,28.4c-50.3-19.5-164.2-39-235.5,11.1
	S646.6-92.4,542.9-48.4z"/>
<g>
	<g>
		<path id="SVGID_7_" class="st5" d="M542.9-48.4c-72,30.6-19.2,56,38.3,61.2c81.4,7.4,108.1-6.4,129.3,41.4
			c7.2,16.2,32.1,32,72.8,39.6c29.3,5.5,65.2,6.2,95.1,1.2c16.6-2.8,31-7.1,46.8-10.4s34.6-5.7,52.2-4c13.9,1.2,27.3,5.3,39.5,12.2
			c22.8,13.1,30.3,29.4,56.4,41.8c22,10.5,57.7,19.2,93.9,20.4c47.4,1.6,91.2-8.7,127.4-18.8c42.3-11.9,77.8-26.9,105.5-43.7
			c35.4-21.4,58.2-45.5,71-70.2c11.4-22,15-44.7,3.9-66.6c-17.5-34.7-84.3-79.3-197-72.6c-135.7,8.1-112.8,61-196.8,28.4
			c-50.3-19.5-164.2-39-235.5,11.1S646.6-92.4,542.9-48.4z"/>
	</g>
	<g>
		<defs>
			<path id="SVGID_8_" d="M542.9-48.4c-72,30.6-19.2,56,38.3,61.2c81.4,7.4,108.1-6.4,129.3,41.4c7.2,16.2,32.1,32,72.8,39.6
				c29.3,5.5,65.2,6.2,95.1,1.2c16.6-2.8,31-7.1,46.8-10.4s34.6-5.7,52.2-4c13.9,1.2,27.3,5.3,39.5,12.2
				c22.8,13.1,30.3,29.4,56.4,41.8c22,10.5,57.7,19.2,93.9,20.4c47.4,1.6,91.2-8.7,127.4-18.8c42.3-11.9,77.8-26.9,105.5-43.7
				c35.4-21.4,58.2-45.5,71-70.2c11.4-22,15-44.7,3.9-66.6c-17.5-34.7-84.3-79.3-197-72.6c-135.7,8.1-112.8,61-196.8,28.4
				c-50.3-19.5-164.2-39-235.5,11.1S646.6-92.4,542.9-48.4z"/>
		</defs>
		<clipPath id="SVGID_9_">
			<use xlink:href="#SVGID_8_"  style="overflow:visible;"/>
		</clipPath>
		<g class="st6">
			<path class="st5" d="M551.8-3c-5.6-37.6,72.3-45.1,122.5-36.8c71.2,11.7,69.5,27.4,158.9-3.2c30.4-10.4,73-16.8,114.6-13.8
				c29.9,2.1,57.4,9.2,71.7,19.1c8,5.5,11.8,11.7,18.2,17.5s16.5,11.5,32.1,14c15,2.4,32.4,1.3,47.8-0.7
				c37-4.8,67.6-15.2,105.9-18.8c32.3-3.1,71.9-1.9,100.4,4.8c37.3,8.8,53.6,25.5,64.5,40.5c12.8,17.6,15.6,36.1,10,54.2
				c-7.1,23.2-27.6,45.6-56.2,66.4c-25.5,18.5-57.9,35.9-100,49.7c-66.5,21.8-184.3,40.5-256.6,11.8c-87-34.5,11.5-68.5-100.6-62.2
				c-67.1,3.8-180.7-5.9-155.7-57.7S559.9,51.1,551.8-3z"/>
			<path class="st5" d="M492.6,1.3C522.3-35.6,604.3-32.9,645-18.6c57.6,20.3,41.2,35.2,155.9,17.1c38.9-6.2,85.9-6.8,123.2,1.3
				c26.8,5.9,46.7,16.1,51.2,27.5c2.5,6.3,0.4,12.8,1.2,19.2s5.2,13.1,17.8,17.5c12.2,4.2,29.9,5.4,46.6,5.5
				c40.2,0,79.3-6,119.5-4.6c33.9,1.2,71,7.3,92.2,17.4c27.7,13.2,27.7,31.4,24.2,47.2c-4.2,18.6-18.8,36.8-41,53.5
				c-28.5,21.4-69.2,40.4-116.2,56.8c-46.4,16.2-94.1,27.9-142.7,35.1c-84.4,12.5-215.3,15.5-258.1-21.3
				c-51.5-44.3,75.1-64.5-38.7-72.7c-68.1-4.9-168.4-28.7-96-75.3S449.8,54.4,492.6,1.3z"/>
		</g>
	</g>
</g>
</svg>
