<?xml version="1.0" encoding="utf-8"?>
<!-- Generator: Adobe Illustrator 22.1.0, SVG Export Plug-In . SVG Version: 6.00 Build 0)  -->
<svg version="1.1" id="Layer_1" xmlns="http://www.w3.org/2000/svg" xmlns:xlink="http://www.w3.org/1999/xlink" x="0px" y="0px"
	 viewBox="0 0 278 238" style="enable-background:new 0 0 278 238;" xml:space="preserve">
<style type="text/css">
	.st0{fill:#E96200;}
	.st1{font-family:'MyriadPro-Bold';}
	.st2{font-size:36px;}
	.st3{fill:none;}
	.st4{fill:#6E6E6E;}
	.st5{font-family:'TimesNewRomanPS-ItalicMT';}
	.st6{font-size:21px;}
	.st7{fill:#51332B;}
	.st8{fill:#D0F8F0;}
	.st9{fill:#232124;}
	.st10{fill:#FECE9A;}
	.st11{fill:#E3E3E3;}
	.st12{fill:#2899C6;}
	.st13{fill:#302721;}
	.st14{opacity:0.5;fill:#6ECECE;}
	.st15{opacity:0.9;}
	.st16{fill:#876451;}
	.st17{fill:#775444;}
	.st18{fill:#EFEFEF;}
</style>
<g>
	<text transform="matrix(1 0 0 1 8.2639 32.6685)" class="st0 st1 st2">Are You</text>
	<text transform="matrix(1 0 0 1 8.2639 75.8685)" class="st0 st1 st2">Hungry ?</text>
	<rect x="4.8" y="85.5" class="st3" width="246" height="129.5"/>
	<text transform="matrix(1 0 0 1 5.6201 110.1752)" class="st4 st5 st6">From the moment  you </text>
	<text transform="matrix(1 0 0 1 5.6201 135.3752)" class="st4 st5 st6">arrive at FoodShala,we&apos;ll</text>
	<text transform="matrix(1 0 0 1 5.6201 160.5752)" class="st4 st5 st6">ensure the standard of</text>
	<text transform="matrix(1 0 0 1 5.6201 185.7752)" class="st4 st5 st6">taste you receive is </text>
	<text transform="matrix(1 0 0 1 5.6201 210.9752)" class="st4 st5 st6">exceptional.</text>
	<g>
		<g>
			<g>
				<polygon class="st7" points="220.6,169.1 226.7,169.1 225.3,212.7 222,212.7 				"/>
				<polygon class="st7" points="261.4,169.1 267.6,169.1 266.1,212.7 262.9,212.7 				"/>
			</g>
			<rect x="214.5" y="160.6" class="st8" width="50.5" height="8.4"/>
			<rect x="261.4" y="100.1" class="st7" width="6.1" height="69"/>
		</g>
		<g>
			<g>
				<g>
					<path class="st9" d="M238.1,56.7c-2.1,3.5,15.9,3.5,20,4.1c4.1,0.6,5.1,3.9,5.1,3.9c6.3-1.4,0.6,16.2-1,20.7
						c-1.6,4.5-8.2,5.2-8.2,5.2l1.2-7.6c0,0,5.3-3.3,3.7-5.9c-1.3-2.2-4.5,0.2-4.5,0.2s-0.7-8.1-3.7-9.5c-3.1-1.4-11.6-1.8-11.6-1.8
						C229.7,60.7,238.1,56.7,238.1,56.7z"/>
					<path class="st10" d="M239.2,65.9c0,0,8.5,0.4,11.6,1.8c3.1,1.4,3.7,9.5,3.7,9.5s3.2-2.5,4.5-0.2c1.5,2.6-3.7,5.9-3.7,5.9
						l-1.2,7.6l0.7,4.8l-7.4,1.1c0.1-1.8-0.6-4.6-1-6.1c-4.4-0.3-9.3-1.1-10.5-3C233.6,83.7,239.2,65.9,239.2,65.9z"/>
				</g>
				<path class="st11" d="M254.3,94.2c0,0,6.5,3.8,8.9,13.7c2.5,9.9-0.1,26.6-4.5,36.2h-21.3c0,0-1.5-32.5,9.7-47.6L254.3,94.2z"/>
			</g>
			<g>
				<path class="st12" d="M258.7,144c0,0,2.1,15-8.1,16.2c0,0-34.8,1.5-35.9,3.3c-1,1.7-9.5,45.7-9.5,45.7l-14.8-3.4
					c0,0,10.1-52.5,14.8-54.9c4.7-2.4,32.1-6.9,32.1-6.9H258.7z"/>
				<path class="st13" d="M203.4,208.8c0,0,1.4,4.8-2.2,5.3c-0.4,0.1-20,0-20,0s-0.1-2.3,4.4-4.1c4.5-1.8,6.8-3.7,6.8-3.7
					L203.4,208.8z"/>
			</g>
			<g>
				<g>
					<polygon class="st14" points="230.1,77.7 220.7,88.8 225.5,93.6 236.7,84.3 					"/>
					<g>
						<g class="st15">
							<path class="st16" d="M232.3,82.1L232.3,82.1l-2.8-2.8l-6.6,8c0,0-0.8,1.4,1.1,3.2l0,0l0,0v0l0,0c1.8,1.8,3.2,1.1,3.2,1.1
								l8-6.6L232.3,82.1z"/>
						</g>
						<g>
							<path class="st17" d="M230.1,81.1c-0.1,0.1-0.2,0.1-0.3,0c-0.1-0.1-0.1-0.2,0-0.3c0.1-0.1,0.2-0.1,0.3,0
								C230.1,80.8,230.1,81,230.1,81.1z"/>
							<path class="st17" d="M230.1,82.5c-0.1,0.1-0.3,0.1-0.4,0c-0.1-0.1-0.1-0.3,0-0.4c0.1-0.1,0.3-0.1,0.4,0
								C230.2,82.2,230.2,82.4,230.1,82.5z"/>
							<path class="st17" d="M227.7,83.4c-0.1,0.1-0.2,0.1-0.3,0c-0.1-0.1-0.1-0.2,0-0.3c0.1-0.1,0.2-0.1,0.3,0
								C227.8,83.2,227.8,83.3,227.7,83.4z"/>
							<path class="st17" d="M228.5,85.3c-0.1,0.1-0.3,0.1-0.4,0c-0.1-0.1-0.1-0.3,0-0.4c0.1-0.1,0.3-0.1,0.4,0
								C228.6,85,228.6,85.2,228.5,85.3z"/>
							<path class="st17" d="M232.5,83.8c-0.1,0.1-0.2,0.1-0.3,0c-0.1-0.1-0.1-0.2,0-0.3c0.1-0.1,0.2-0.1,0.3,0
								C232.6,83.6,232.6,83.7,232.5,83.8z"/>
							<path class="st17" d="M232,86.2c-0.1,0.1-0.3,0.1-0.4,0c-0.1-0.1-0.1-0.3,0-0.4c0.1-0.1,0.3-0.1,0.4,0
								C232.1,85.9,232.1,86.1,232,86.2z"/>
							<path class="st17" d="M228.4,88.9c-0.1,0.1-0.3,0.1-0.4,0c-0.1-0.1-0.1-0.3,0-0.4c0.1-0.1,0.3-0.1,0.4,0
								C228.6,88.6,228.6,88.8,228.4,88.9z"/>
							<path class="st17" d="M226.1,86.8c-0.1,0.1-0.2,0.1-0.3,0c-0.1-0.1-0.1-0.2,0-0.3c0.1-0.1,0.2-0.1,0.3,0
								C226.1,86.6,226.1,86.7,226.1,86.8z"/>
							<path class="st17" d="M225.8,89.3c-0.1,0.1-0.3,0.1-0.4,0c-0.1-0.1-0.1-0.3,0-0.4c0.1-0.1,0.3-0.1,0.4,0
								C225.9,89,225.9,89.2,225.8,89.3z"/>
							<path class="st17" d="M230.6,87c-0.1,0.1-0.2,0.1-0.3,0c-0.1-0.1-0.1-0.2,0-0.3c0.1-0.1,0.2-0.1,0.3,0
								C230.7,86.8,230.7,87,230.6,87z"/>
						</g>
					</g>
				</g>
			</g>
			<g>
				<g>
					<path class="st10" d="M225.3,90c1.5-2,2.5-1.8,2.6-1.4c0,0.4-0.8,1.1-1.7,3.6c-0.3,1-0.9,1.9-1.5,2.6l-5.2-0.7
						c-0.5-3,0.2-8.3,0.9-10.1c0.8-2.1,4.9-1.3,5.4-0.4c0.7,1.4-0.4,4.7-0.8,5.9C224.7,90.8,225.3,90,225.3,90z"/>
					<path class="st18" d="M250.1,98.7c-8,2.9-15.9,5.7-23.9,8.6c0.4-4.7,0.7-9.4,1.1-14.1l-9.9-1.1c-0.6,7.5-1.2,15-1.8,22.5
						c-0.2,3.1,3.4,5.9,6.3,4.8c10.3-3.7,20.5-7.4,30.8-11.1C258.8,106.2,256.2,96.5,250.1,98.7z"/>
				</g>
			</g>
		</g>
	</g>
</g>
</svg>
