<svg xmlns="http://www.w3.org/2000/svg" xmlns:xlink="http://www.w3.org/1999/xlink" viewBox="0 0 481.82 731.27"><defs><style>.cls-1{fill:none;}.cls-2{fill:url(#linear-gradient);}.cls-3{clip-path:url(#clip-path);}.cls-4{fill:url(#linear-gradient-2);}.cls-5{fill:url(#linear-gradient-3);}.cls-6{fill:url(#linear-gradient-4);}.cls-7{clip-path:url(#clip-path-2);}.cls-8{fill:url(#linear-gradient-5);}.cls-9{fill:url(#linear-gradient-6);}.cls-10{fill:#c1c1c1;}.cls-11{fill:#ed8a40;}.cls-12{fill:#ffb680;}.cls-13{fill:#3c3c3c;}.cls-14{fill:#d8d8d8;}.cls-15{fill:#7f7f7f;}.cls-16{fill:#fff;}.cls-17{fill:#606060;}.cls-18{fill:#e21a37;}.cls-19{fill:#ff364a;}.cls-20{fill:#2fa583;}.cls-21{fill:#fde875;}.cls-22{fill:#ce5119;}.cls-23{fill:#a83800;}.cls-24{fill:#e25c27;}.cls-25{fill:#8c2b00;}.cls-26{fill:#ffa31d;}.cls-27{fill:#dd7e00;}.cls-28{fill:#444;}.cls-29{fill:#2d2d2d;}.cls-30{fill:#ff6c81;}.cls-31{fill:#892a00;}.cls-32{fill:#30302e;}.cls-33{fill:#545454;}.cls-34{fill:#4ec4a5;}</style><linearGradient id="linear-gradient" x1="17.62" y1="817.38" x2="377.38" y2="817.38" gradientTransform="matrix(0.74, -0.6, 0.75, 0.92, -467.23, -100.91)" gradientUnits="userSpaceOnUse"><stop offset="0" stop-color="#ddd70e"/><stop offset="0.79" stop-color="#f30"/></linearGradient><clipPath id="clip-path"><path class="cls-1" d="M435.63,456.35c-8.9-43.8-42.2-49.4-59.7-37.9-24.9,16.3-19.6,34.5-64.3,2.5-15.2-10.9-34.1-16.6-49.7-11.5a34.44,34.44,0,0,0-23,24.9c-1.6,6.7-1.2,14-2.1,21s-3.2,13.9-8.7,17.4c-5.2,3.3-12.5,2.8-19.3,1.1-16.2-4.1-31.4-14.9-47.8-17.7-13.8-2.3-29.3.6-38.7,9.4-12.3,11.6-13.8,31.7-13.7,49.5.1,20.9,4.3,42.5,11.9,63.2,9.7,26.6,24.4,51.8,42.1,74.8,15.7,20.5,33.7,39.4,54.6,53.7,32.9,22.7,85.4,39.7,105.8,3.7,24.6-43.4-24.8-78.9,21.8-76,27.9,1.7,70.3-13.9,45.1-72.9S448.33,519.35,435.63,456.35Z"/></clipPath><linearGradient id="linear-gradient-2" x1="36.05" y1="746.03" x2="359.84" y2="746.03" xlink:href="#linear-gradient"/><linearGradient id="linear-gradient-3" x1="71.55" y1="683.78" x2="379.83" y2="683.78" xlink:href="#linear-gradient"/><linearGradient id="linear-gradient-4" x1="39.51" y1="639.63" x2="399.28" y2="639.63" gradientTransform="matrix(1.07, -0.65, 0.83, 1.32, -491.75, -317.71)" xlink:href="#linear-gradient"/><clipPath id="clip-path-2"><path class="cls-1" d="M477,304.68c-4.48-58.18-47.21-71-72-59-35.31,17-31.35,41.41-84.69-7.45-18.14-16.63-42-27.15-63.26-23.14a45.16,45.16,0,0,0-34.24,28.41c-3.19,8.41-3.87,17.93-6.19,26.84s-6.48,17.46-14.26,21.08c-7.36,3.41-16.85,1.55-25.48-1.78-20.56-8-38.71-24.51-59.75-30.86-17.71-5.27-38.51-4.09-52.27,5.74-18,13-23.29,38.75-26.08,61.81-3.3,27.07-1.34,55.74,5.22,83.8C52.32,446.19,67.45,481.25,86.88,514c17.21,29.15,37.7,56.61,62.75,78.6,39.4,34.85,105.43,65.59,138.07,22.37,39.37-52.1-19.55-106.27,41.05-94.77,36.29,6.84,94.43-6.31,71.08-86.89S483.31,388.35,477,304.68Z"/></clipPath><linearGradient id="linear-gradient-5" x1="57.94" y1="568.27" x2="381.73" y2="568.27" gradientTransform="matrix(1.07, -0.65, 0.83, 1.32, -491.75, -317.71)" xlink:href="#linear-gradient"/><linearGradient id="linear-gradient-6" x1="93.44" y1="506.03" x2="401.72" y2="506.03" gradientTransform="matrix(1.07, -0.65, 0.83, 1.32, -491.75, -317.71)" xlink:href="#linear-gradient"/></defs><title>staff_1</title><g id="Layer_2" data-name="Layer 2"><g id="Layer_1-2" data-name="Layer 1"><path id="SVGID" class="cls-2" d="M435.63,456.35c-8.9-43.8-42.2-49.4-59.7-37.9-24.9,16.3-19.6,34.5-64.3,2.5-15.2-10.9-34.1-16.6-49.7-11.5a34.44,34.44,0,0,0-23,24.9c-1.6,6.7-1.2,14-2.1,21s-3.2,13.9-8.7,17.4c-5.2,3.3-12.5,2.8-19.3,1.1-16.2-4.1-31.4-14.9-47.8-17.7-13.8-2.3-29.3.6-38.7,9.4-12.3,11.6-13.8,31.7-13.7,49.5.1,20.9,4.3,42.5,11.9,63.2,9.7,26.6,24.4,51.8,42.1,74.8,15.7,20.5,33.7,39.4,54.6,53.7,32.9,22.7,85.4,39.7,105.8,3.7,24.6-43.4-24.8-78.9,21.8-76,27.9,1.7,70.3-13.9,45.1-72.9S448.33,519.35,435.63,456.35Z"/><g class="cls-3"><path class="cls-4" d="M395.83,423c32.6,28.2,20.9,55.3,2.4,62.5-26.1,10.1-38.9-2.8-33.9,45.8,1.7,16.5-2.9,33.1-14.9,42.1-8.7,6.5-20.9,8.4-32.5,4.4-6.5-2.2-12.5-6.1-18.8-8.8s-13.4-4.6-19-2.3c-5.4,2.2-8.6,7.7-10.5,13.5-4.5,13.9-3,30.4-8.8,43.7-4.9,11.2-15,21.1-27.1,23.5-15.9,3.2-33.6-5.6-48.6-14.5a194.71,194.71,0,0,1-47.4-40.1c-17.7-20.3-31.7-43.6-42.3-67.8-9.5-21.6-16.5-44.1-18.3-66.5-2.8-35.4,8.8-82.3,49.3-79.3,48.8,3.6,54.4,57.3,75,21.8,12.4-21.2,46.6-44.5,83.9,3.2S348.83,382.35,395.83,423Z"/><path class="cls-5" d="M405.83,403.45c23.9,37.2,2.7,57.5-18.6,57.2-30.2-.4-38.8-16.7-50.2,28.9-3.9,15.5-14.1,28.8-29.5,32.5-11,2.7-24.2-.1-34.7-7.8-5.9-4.3-10.7-10-16.2-14.8s-12.2-9-18.7-9c-6.3,0-11.4,3.8-15.3,8.4-9.3,10.9-13.3,26.3-23.7,36.2-8.8,8.3-22.5,13.6-35.7,11.4-17.4-2.9-32.5-17.3-44.9-30.8a211.15,211.15,0,0,1-35-53.5,247.64,247.64,0,0,1-20.4-76.4c-2.5-22.9-2.1-45.8,3.7-66.6,9-32.9,36.7-70.8,77.2-53.4,48.8,21,36.4,71.4,69.4,46.9,19.8-14.7,62.7-23.2,84.8,33.4S371.53,349.75,405.83,403.45Z"/></g><path id="SVGID-2" data-name="SVGID" class="cls-6" d="M477,304.68c-4.48-58.18-47.21-71-72-59-35.31,17-31.35,41.41-84.69-7.45-18.14-16.63-42-27.15-63.26-23.14a45.16,45.16,0,0,0-34.24,28.41c-3.19,8.41-3.87,17.93-6.19,26.84s-6.48,17.46-14.26,21.08c-7.36,3.41-16.85,1.55-25.48-1.78-20.56-8-38.71-24.51-59.75-30.86-17.71-5.27-38.51-4.09-52.27,5.74-18,13-23.29,38.75-26.08,61.81-3.3,27.07-1.34,55.74,5.22,83.8C52.32,446.19,67.45,481.25,86.88,514c17.21,29.15,37.7,56.61,62.75,78.6,39.4,34.85,105.43,65.59,138.07,22.37,39.37-52.1-19.55-106.27,41.05-94.77,36.29,6.84,94.43-6.31,71.08-86.89S483.31,388.35,477,304.68Z"/><g class="cls-7"><path class="cls-8" d="M430.31,254.83c38.11,41.92,18.32,75.06-7.11,81.31-35.87,8.74-50.53-10.09-51.95,53.66-.48,21.65-9.23,42.37-26.44,52-12.47,7-28.77,7.4-43.32.3-8.16-3.93-15.39-10-23.2-14.52s-16.81-8.18-24.53-6.14c-7.44,2-12.53,8.54-16,15.74-8.18,17.25-8.92,38.86-18.7,55.11C210.82,506,196,517.15,179.7,518.24c-21.37,1.5-43.12-12.83-61.33-26.85C97,475,78.19,454.33,62.83,431.6,43,402.38,28.43,369.89,18.51,336.8,9.6,307.25,4.12,277,5.44,247.66c2.14-46.3,25-105.09,77.63-94.47C146.45,166,145,236.41,177.8,193.87,197.54,168.49,246.19,144,287.25,212S375.37,194.45,430.31,254.83Z"/><path class="cls-9" d="M446.62,231.24c25.22,52.13-5.9,74.89-33.77,71-39.52-5.53-48.11-28.06-70.54,29.08-7.66,19.42-23.21,34.94-44,37.17-14.86,1.67-31.71-4.15-44.2-15.86-7-6.55-12.39-14.73-18.81-21.86s-14.51-13.67-23-14.75c-8.26-1.05-15.57,3-21.44,8.33-14,12.56-21.75,31.84-37,42.93-12.9,9.28-31.73,13.86-48.67,8.82-22.33-6.64-39.76-27.8-53.8-47.33a275.26,275.26,0,0,1-37.09-75.08C3.62,219.94-.6,184.94.07,151.35.55,121.28,4.83,91.7,15.85,65.74,33,24.64,75.57-19.83,125.8,9.43c60.52,35.3,36,98.49,83.27,72.25,28.37-15.74,86-19.62,105.67,57.33S410.48,156,446.62,231.24Z"/></g><path class="cls-10" d="M135.12,332.72a11.66,11.66,0,0,0-5.48-8.49c-6.92-4.3-16.91-2-23.33,2.66-2,1.5-4.32,4.06-3.68,7.38.42,2.15,2.42,6.61,13.92,6.51,4.77,0,9.55.47,14.12-1.41C133.37,338.26,135.48,336.61,135.12,332.72Z"/><path class="cls-11" d="M119.39,374.86a8.26,8.26,0,0,0,3.85-3.91,43,43,0,0,1-.19-8.27l-8.5-1.62s-.3,7-.77,10.05C114.27,373.15,117,375.46,119.39,374.86Z"/><path class="cls-12" d="M129.45,350.89a1.49,1.49,0,0,0-2.08-1.25c-.63-6.86-3.81-12-8.16-12.16s-7.93,4.46-8.86,11.4a1.45,1.45,0,0,0-2.16,1.05c-.45,1.94.25,4.9,2,5.71h0a15,15,0,0,0,.67,3.44c1.73,5.1,5,9,7.42,9.13s5.69-3.32,7.68-8.45a22.61,22.61,0,0,0,1-3.34.32.32,0,0,0,.09,0C128.91,355.75,129.78,352.86,129.45,350.89Z"/><path class="cls-13" d="M120.75,342c-1.84,3.42-7.92,8.37-12.16,7-.51-4.86,1.94-9.73,3.31-11.65,3.86-5.39,11-4.62,13.14-1.7,4.68,6.32,4.56,10.88,3.2,14C126,350.93,121.83,345.29,120.75,342Z"/><path class="cls-14" d="M147.06,410.05c-2.4-14.73-5-29.24-8.55-31.92s-15.42-7.47-15.42-7.47l-4.58,4.2-4.58-4.2s-11.9,4.79-15.41,7.47S92.36,395.32,90,410.05c-.54,3.31-1.17,7-1.83,10.72a20.73,20.73,0,0,1,10.35,3l4.46-24.88,3,24.88h25.2l3-24.88,4.47,24.88a20.68,20.68,0,0,1,10.35-3C148.24,417.05,147.6,413.36,147.06,410.05Z"/><path class="cls-15" d="M130.8,327.78a6.81,6.81,0,0,0-5.1,1.42,12.14,12.14,0,0,0-2.92,5.16S128.55,328.67,130.8,327.78Z"/><path class="cls-15" d="M113.57,324.52s2.43,4.75,2.65,6.93,1.36-.88.73-3.1C115.91,324.68,113.57,324.52,113.57,324.52Z"/><path class="cls-15" d="M107,328.46a44,44,0,0,1,3.14,3.84,8.46,8.46,0,0,0,2,2.06s.55-3.46-1.17-4.9A5.07,5.07,0,0,0,107,328.46Z"/><path class="cls-10" d="M85.85,416.89l2,6.9a10.28,10.28,0,0,1,8.38,3.26,40.45,40.45,0,0,0,4.94-4.86s-2-5.05-7-6.6A8.84,8.84,0,0,0,85.85,416.89Z"/><path class="cls-10" d="M150.83,416.89l-2,6.9a10.28,10.28,0,0,0-8.38,3.26,40.81,40.81,0,0,1-5-4.86s2-5.05,7-6.6A8.84,8.84,0,0,1,150.83,416.89Z"/><rect class="cls-10" x="109.84" y="375.61" width="18.06" height="74.91"/><rect class="cls-14" x="108.06" y="377.59" width="18.28" height="73.39"/><path class="cls-16" d="M103,557.84s-10,6-12.76,8.18-1.71,4.28-1.71,4.28h20.22s.28-9.72-.29-11.82S103,557.84,103,557.84Z"/><path class="cls-13" d="M101.23,485.19s-.4,22.72-1.19,32c-1.26,14.94-3,43-3,43h12.77s2.53-35.61,3.94-49.8c1-10,3-25.19,3-25.19Z"/><rect class="cls-17" x="88.35" y="569.35" width="20.42" height="1.9"/><path class="cls-16" d="M135.07,557.84s10,6,12.76,8.18,1.71,4.28,1.71,4.28H129.32s-.28-9.72.28-11.82S135.07,557.84,135.07,557.84Z"/><path class="cls-13" d="M136.86,485.19s.4,22.72,1.18,32c1.27,14.94,3,43,3,43H128.25s-2.53-35.61-3.94-49.8c-1-10-3-25.19-3-25.19Z"/><rect class="cls-17" x="129.32" y="569.35" width="20.42" height="1.9" transform="translate(279.06 1140.61) rotate(180)"/><path class="cls-18" d="M138.77,461.82c-.88-18.88-7.38-38-7.38-38H105.91s-6.5,19.15-7.38,38S96.19,501,96.19,501h44.92S139.65,480.7,138.77,461.82Z"/><rect class="cls-19" x="105.64" y="421.56" width="26.04" height="3.14"/><path class="cls-10" d="M112.19,371.38V367s6.51,2,6.32,7.88A50.86,50.86,0,0,1,112.19,371.38Z"/><path class="cls-10" d="M124.84,371.38V367s-6.51,2-6.32,7.88A51.74,51.74,0,0,0,124.84,371.38Z"/><path class="cls-13" d="M114.69,381a1.08,1.08,0,1,1-1.06-1.31A1.19,1.19,0,0,1,114.69,381Z"/><path class="cls-13" d="M124.47,381a1.08,1.08,0,1,1-1-1.31A1.19,1.19,0,0,1,124.47,381Z"/><path class="cls-19" d="M113.43,397.23a1.08,1.08,0,1,1-1.06-1.31A1.19,1.19,0,0,1,113.43,397.23Z"/><path class="cls-19" d="M124.47,397.23a1.08,1.08,0,1,1-1-1.31A1.19,1.19,0,0,1,124.47,397.23Z"/><path class="cls-19" d="M113.43,415.59a1.08,1.08,0,1,1-1.06-1.31A1.19,1.19,0,0,1,113.43,415.59Z"/><path class="cls-19" d="M124.47,415.59a1.08,1.08,0,1,1-1-1.31A1.19,1.19,0,0,1,124.47,415.59Z"/><path class="cls-14" d="M129.06,332.22s-2.57-3.29-10.19-3.29c-7.11,0-10.25,3.29-10.25,3.29V346h20.44Z"/><polygon class="cls-18" points="111.6 386.99 109.39 386.99 109.39 372.57 111.6 371.62 111.6 386.99"/><polygon class="cls-18" points="125.69 386.99 127.9 386.99 127.9 372.57 125.69 371.62 125.69 386.99"/><polygon class="cls-18" points="105.64 421.56 109.33 386.75 127.9 386.75 131.69 421.56 105.64 421.56"/><path class="cls-20" d="M108.35,442v7.79c0,6.91,4.57,12.56,10.16,12.56s10.16-5.65,10.16-12.56V442Z"/><path class="cls-21" d="M148.9,449c-1.66-2.52-6.13-2.44-8.47-2.51-1.05,0-28.66-.81-43.06.25-5.85.43-7.39,2.91-7.88,3.75-.7,1.23,11.81,1,25.89.82,13.43-.19,28.31-.36,33.23-.48C149.34,450.85,149.32,449.68,148.9,449Z"/><path class="cls-22" d="M140.56,440.5h4.91c1.85,0,4-2,6.45-2s2.66,2.35,2.66,3.56-.18,3.57-2.66,3.56-4.6-2-6.45-2h-4.91L140.1,442Z"/><path class="cls-22" d="M139.05,447.09H98.69c-2,0-3.65-2-3.65-4.5h0c0-2.48,1.64-4.51,3.65-4.51h40.36c2,0,3.64,2,3.64,4.51h0C142.69,445.06,141.05,447.09,139.05,447.09Z"/><path class="cls-22" d="M96.91,440.5H92c-1.84,0-4-2-6.45-2s-2.66,2.35-2.66,3.56.18,3.57,2.66,3.56,4.61-2,6.45-2h4.91l.46-1.54Z"/><path class="cls-12" d="M87.81,423.79s-6.62,7.93-8.56,10.71a8.2,8.2,0,0,0,0,9.23c1.84,2.4,3.78,5.43,5.63,5.31s4.6-2.28,5.21-2.91-2.66-9.1-2.66-9.1l8.76-10S93.4,422.07,87.81,423.79Z"/><path class="cls-12" d="M84.67,436.24s2.56.41,5.12.53a38,38,0,0,0,4.3,0s-.36,3.16-3,3.16h-9Z"/><path class="cls-12" d="M148.91,423.79s6.62,7.93,8.56,10.71a8.18,8.18,0,0,1,0,9.23c-1.84,2.4-3.78,5.43-5.62,5.31s-4.61-2.28-5.22-2.91,2.66-9.1,2.66-9.1l-8.75-10S143.32,422.07,148.91,423.79Z"/><path class="cls-12" d="M152.05,436.24s-2.56.41-5.12.53a37.85,37.85,0,0,1-4.29,0s.35,3.16,3,3.16h9Z"/><path class="cls-22" d="M65,534.46a245.38,245.38,0,0,0-29.1,23.66v14.21H204.71V479.76C156.17,488.32,107.61,504.8,65,534.46Z"/><path class="cls-23" d="M35.86,456.44V558.12A245.38,245.38,0,0,1,65,534.46c42.65-29.66,91.21-46.14,139.75-54.7V456.44Z"/><rect class="cls-24" x="32.07" y="450.72" width="176.43" height="5.71"/><rect class="cls-25" x="35.86" y="456.44" width="168.85" height="18.63"/><path class="cls-21" d="M171.74,443.28c-.79-.91-3.85-2.36-6.07-.93-1.93,1.3-3.6,3.58-3.15,6a2.87,2.87,0,0,0,2.38,2.35,14.24,14.24,0,0,0,5.74-.19C174.09,449.72,174,445.8,171.74,443.28Z"/><path class="cls-21" d="M185.15,443.28c-.8-.91-3.86-2.36-6.08-.93-1.93,1.3-3.59,3.58-3.14,6a2.86,2.86,0,0,0,2.38,2.35,14.25,14.25,0,0,0,5.74-.19C187.5,449.72,187.35,445.8,185.15,443.28Z"/><path class="cls-21" d="M198.86,443.28c-.8-.91-3.85-2.36-6.07-.93-1.94,1.3-3.6,3.58-3.15,6a2.87,2.87,0,0,0,2.38,2.35,14.24,14.24,0,0,0,5.74-.19C201.21,449.72,201.07,445.8,198.86,443.28Z"/><path class="cls-21" d="M69.31,424.7c-3.43-3.33-6-1.57-11.05,0-2.33.72-10,3.5-11.12,4.37a4.84,4.84,0,0,0-3.09,3.23c-.82,3.57,2.32,5.16,4.58,5.65a33.8,33.8,0,0,0,14.61,0c3-.7,6.95-1.76,8-5.88A7.11,7.11,0,0,0,69.31,424.7Z"/><path class="cls-26" d="M36.7,429.63c.41,11.42,9,20.55,19.68,20.55s19.28-9.13,19.68-20.55Z"/><rect class="cls-27" x="48.85" y="448.56" width="15.06" height="2.38"/><rect class="cls-13" x="272.14" y="503.33" width="92.24" height="183.34"/><rect class="cls-17" x="272.14" y="641.86" width="92.24" height="2.44"/><rect class="cls-17" x="272.14" y="570.43" width="92.24" height="2.44"/><rect class="cls-17" x="298.77" y="582.83" width="53.4" height="47.29"/><path class="cls-16" d="M358,600.51c-2,0-2.12,3.58-2.12,7A99.61,99.61,0,0,0,356.93,621c.49,2,1.62,2,2.12,0a101.43,101.43,0,0,0,1.05-13.48C360.1,604.09,359.86,600.51,358,600.51Z"/><rect class="cls-17" x="298.77" y="513.45" width="53.4" height="47.29"/><path class="cls-16" d="M358,533c-2,0-2.12,3.58-2.12,7a99.61,99.61,0,0,0,1.06,13.48c.49,2,1.62,2,2.12,0A101.43,101.43,0,0,0,360.1,540C360.1,536.6,359.86,533,358,533Z"/><rect class="cls-28" x="298.77" y="619.5" width="53.4" height="1.47"/><rect class="cls-28" x="298.77" y="550.41" width="53.4" height="1.47"/><path class="cls-26" d="M326.79,530.69c-4.29,1.08-12.4,4.33-15.36,8.57s-2.25,9.6,1.51,9.6h18.69c2.8,0,3.88-5.86,3.24-9.94S331.86,529.42,326.79,530.69Z"/><path class="cls-27" d="M319.08,546.2c-1.11-.83-3.58-3-6.46-3.16s-1.73,3.29-.29,4.89,5.57,2,7.33,1.21S319.81,546.75,319.08,546.2Z"/><path class="cls-27" d="M333.59,529.16s-6,3.31-8.64,6.71,2.32,9.93,5.92,9.59,4.88-2,5-5.86c.06-3.05-.63-5.45-.14-6.76.86-2.34,1.76-2.37,1.34-3.59S336.26,527.52,333.59,529.16Z"/><path class="cls-21" d="M318.57,543.49c.9.08,2,2,2.51,3s.84,2.71-1.61,2.72-3.1-.14-3.35-1.39C315.82,546.36,315.88,543.23,318.57,543.49Z"/><path class="cls-21" d="M326.27,543.49c-.91.08-2,2-2.51,3s-.84,2.71,1.61,2.72,3.1-.14,3.35-1.39C329,546.36,329,543.23,326.27,543.49Z"/><path class="cls-21" d="M307.92,545.23a7.56,7.56,0,0,1,4.42-.5c1.52.41,3.16,2,2.56,2.76a5.21,5.21,0,0,1-5.83,1.36C306.41,547.52,305.83,546.14,307.92,545.23Z"/><path class="cls-21" d="M330.46,546.64a7.87,7.87,0,0,1,3.89-2.28c1.55-.25,3.66.56,3.37,1.48a5.47,5.47,0,0,1-4.87,3.67C329.91,549.38,328.87,548.35,330.46,546.64Z"/><path class="cls-29" d="M305.19,547.86a2.77,2.77,0,0,0,2.67,2.55H337a2.77,2.77,0,0,0,2.67-2.55Z"/><path class="cls-16" d="M335,528.4l1.88,2.1,1.43-1.17s2.73.51,3-1c.35-1.88-1.52-1.66-1.52-1.66s1-2-.56-2.46-2.07,1.23-2.36,1.83A15.89,15.89,0,0,1,335,528.4Z"/><rect class="cls-29" x="277.25" y="507.88" width="15.03" height="57.85"/><rect class="cls-17" x="283.21" y="518.6" width="6.75" height="1.54"/><rect class="cls-17" x="283.21" y="515.41" width="6.75" height="1.54"/><rect class="cls-17" x="279.56" y="518.6" width="2.18" height="1.54"/><rect class="cls-17" x="279.56" y="515.41" width="2.18" height="1.54"/><rect class="cls-17" x="279.56" y="525.02" width="10.4" height="28.3"/><rect class="cls-29" x="283.87" y="550.4" width="5.1" height="0.48"/><rect class="cls-29" x="283.87" y="547.3" width="5.1" height="0.48"/><rect class="cls-29" x="283.87" y="544.18" width="5.1" height="0.48"/><rect class="cls-29" x="280.84" y="540.88" width="8.12" height="0.51"/><rect class="cls-29" x="280.84" y="532.27" width="8.12" height="0.51"/><rect class="cls-16" x="287.18" y="537.57" width="1.79" height="1.53"/><rect class="cls-16" x="283.87" y="537.57" width="1.79" height="1.53"/><rect class="cls-16" x="280.84" y="537.57" width="1.79" height="1.53"/><rect class="cls-16" x="287.18" y="534.52" width="1.79" height="1.53"/><rect class="cls-16" x="283.87" y="534.52" width="1.79" height="1.53"/><rect class="cls-16" x="280.84" y="534.52" width="1.79" height="1.53"/><rect class="cls-16" x="287.18" y="529.29" width="1.79" height="1.53"/><rect class="cls-16" x="283.87" y="529.29" width="1.79" height="1.53"/><rect class="cls-16" x="280.84" y="529.29" width="1.79" height="1.53"/><rect class="cls-16" x="287.18" y="526.24" width="1.79" height="1.53"/><rect class="cls-16" x="283.87" y="526.24" width="1.79" height="1.53"/><rect class="cls-16" x="280.84" y="526.24" width="1.79" height="1.53"/><path class="cls-16" d="M282.5,550.64a.76.76,0,1,1-.76-.81A.78.78,0,0,1,282.5,550.64Z"/><path class="cls-16" d="M282.5,547.54a.76.76,0,1,1-.76-.8A.78.78,0,0,1,282.5,547.54Z"/><path class="cls-16" d="M282.5,544.42a.76.76,0,1,1-.76-.81A.78.78,0,0,1,282.5,544.42Z"/><ellipse class="cls-16" cx="284.76" cy="559.67" rx="2.42" ry="2.56"/><rect class="cls-30" x="279.56" y="510.3" width="10.4" height="1.75"/><rect class="cls-29" x="277.25" y="577.55" width="15.03" height="57.85"/><rect class="cls-17" x="283.21" y="588.26" width="6.75" height="1.54"/><rect class="cls-17" x="283.21" y="585.07" width="6.75" height="1.54"/><rect class="cls-17" x="279.56" y="588.26" width="2.18" height="1.54"/><rect class="cls-17" x="279.56" y="585.07" width="2.18" height="1.54"/><rect class="cls-17" x="279.56" y="594.68" width="10.4" height="28.3"/><rect class="cls-29" x="283.87" y="620.06" width="5.1" height="0.48"/><rect class="cls-29" x="283.87" y="616.97" width="5.1" height="0.48"/><rect class="cls-29" x="283.87" y="613.84" width="5.1" height="0.48"/><rect class="cls-29" x="280.84" y="610.54" width="8.12" height="0.51"/><rect class="cls-29" x="280.84" y="601.94" width="8.12" height="0.51"/><rect class="cls-16" x="287.18" y="607.23" width="1.79" height="1.53"/><rect class="cls-16" x="283.87" y="607.23" width="1.79" height="1.53"/><rect class="cls-16" x="280.84" y="607.23" width="1.79" height="1.53"/><rect class="cls-16" x="287.18" y="604.18" width="1.79" height="1.53"/><rect class="cls-16" x="283.87" y="604.18" width="1.79" height="1.53"/><rect class="cls-16" x="280.84" y="604.18" width="1.79" height="1.53"/><rect class="cls-16" x="287.18" y="598.95" width="1.79" height="1.53"/><rect class="cls-16" x="283.87" y="598.95" width="1.79" height="1.53"/><rect class="cls-16" x="280.84" y="598.95" width="1.79" height="1.53"/><rect class="cls-16" x="287.18" y="595.9" width="1.79" height="1.53"/><rect class="cls-16" x="283.87" y="595.9" width="1.79" height="1.53"/><rect class="cls-16" x="280.84" y="595.9" width="1.79" height="1.53"/><path class="cls-16" d="M282.5,620.3a.76.76,0,1,1-.76-.8A.78.78,0,0,1,282.5,620.3Z"/><path class="cls-16" d="M282.5,617.21a.76.76,0,1,1-.76-.81A.78.78,0,0,1,282.5,617.21Z"/><path class="cls-16" d="M282.5,614.08a.76.76,0,1,1-.76-.8A.78.78,0,0,1,282.5,614.08Z"/><path class="cls-16" d="M287.18,629.33a2.42,2.42,0,1,1-2.42-2.56A2.5,2.5,0,0,1,287.18,629.33Z"/><rect class="cls-30" x="279.56" y="579.96" width="10.4" height="1.75"/><rect class="cls-17" x="277.89" y="650.18" width="80.74" height="31.16"/><path class="cls-29" d="M324.13,656.32H310.94a1.38,1.38,0,0,1-1.34-1.42h0a1.39,1.39,0,0,1,1.34-1.43h13.19a1.39,1.39,0,0,1,1.34,1.43h0A1.39,1.39,0,0,1,324.13,656.32Z"/><path class="cls-12" d="M366,566.74s4.16,13.77,6.65,17.15,7.35,1.87,8.64-1.68.2-4.66.2-4.66l-11.21-16Z"/><path class="cls-12" d="M336.19,577.55c-1.95-1.14-9.45-9-11.62-11a30.58,30.58,0,0,0-8.38-4.79c-2.77-1.1-3.23,2-1.5,4.62,2.47,3.7,6.22,3,7.89,6,1.87,3.33,9.07,18,15.71,13.44,2.34-1.61,2.55-9.91,2.55-9.91Z"/><path class="cls-12" d="M357.9,545.72a6.49,6.49,0,0,0,3.22-2.81A26.16,26.16,0,0,1,361,537l-7.11-1.17s-.25,5-.64,7.22A4.47,4.47,0,0,0,357.9,545.72Z"/><path class="cls-12" d="M366.31,528.51a1.27,1.27,0,0,0-1.73-.9c-.53-4.91-3.19-8.58-6.82-8.72s-6.64,3.2-7.41,8.18a1.26,1.26,0,0,0-1.8.76c-.38,1.39.21,3.51,1.67,4.09h0a9.5,9.5,0,0,0,.56,2.47c1.45,3.66,4.2,6.47,6.2,6.55s4.75-2.38,6.42-6.06a15.72,15.72,0,0,0,.86-2.4l.07,0C365.86,532,366.59,529.93,366.31,528.51Z"/><path class="cls-23" d="M348.88,527.19c-.43-3.49,1.62-7,2.76-8.36,3.23-3.86,9.18-3.32,11-1.22,3.91,4.53,3.8,7.81,2.67,10-.86,3.47-1.95,9.21-7.9,9.21C353.65,536.86,350.11,531.15,348.88,527.19Z"/><path class="cls-16" d="M381,571c-2-10.58-4.21-21-7.15-22.92S361,542.7,361,542.7h-7.64s-10,3.44-12.89,5.36-5.15,12.34-7.15,22.92c-.45,2.37-1,5-1.53,7.69,3.72,6.4,8.65,2.17,8.65,2.17L344.16,563l2.48,17.86H367.7L370.18,563l2.26,16.25s6,6.54,9.45,1.13C382.62,577,381.48,573.35,381,571Z"/><path class="cls-23" d="M344.23,677s-8.36,4.31-10.67,5.87-1.43,3.08-1.43,3.08H349s.24-7-.24-8.49S344.23,677,344.23,677Z"/><path class="cls-21" d="M342.73,624.9s-.34,16.31-1,23c-1.06,10.72-2.49,30.84-2.49,30.84h10.67s2.12-25.56,3.3-35.74c.82-7.15,2.47-18.08,2.47-18.08Z"/><rect class="cls-31" x="331.97" y="685.3" width="17.06" height="1.37"/><path class="cls-23" d="M371,677s8.35,4.31,10.66,5.87S383.1,686,383.1,686H366.2s-.23-7,.24-8.49S371,677,371,677Z"/><path class="cls-21" d="M372.5,624.9s.34,16.31,1,23c1.06,10.72,2.49,30.84,2.49,30.84H365.31S363.19,653.16,362,643c-.83-7.15-2.48-18.08-2.48-18.08Z"/><rect class="cls-31" x="366.2" y="685.3" width="17.06" height="1.37" transform="translate(749.47 1371.97) rotate(180)"/><path class="cls-19" d="M374.1,608.13c-.74-13.55-6.17-27.29-6.17-27.29H346.64s-5.43,13.74-6.17,27.29-2,28.11-2,28.11h37.55S374.83,621.68,374.1,608.13Z"/><rect class="cls-19" x="348.82" y="518.89" width="17.17" height="6.78"/><rect class="cls-18" x="346.42" y="579.23" width="21.76" height="2.25"/><path class="cls-18" d="M351.65,522.74c-1.54.26-4.77,1.22-6.25-.46s-2.37-7.2,3.42-8.86,12.64.48,16,2.08,6,2.56,5.27,4.32-4.15,1.75-8.46,1.46C359.44,521.13,353.87,522.39,351.65,522.74Z"/><path class="cls-14" d="M356.83,539c-3.71,0-7.47,5.23-7.47,5.23l15.35-.17S360.53,539,356.83,539Z"/><polygon class="cls-17" points="395.77 328.07 395.77 331.11 395.77 332.07 395.77 335.1 400.8 333.31 400.8 332.07 400.8 331.11 400.8 329.87 395.77 328.07"/><path class="cls-15" d="M389.83,319.77a3.58,3.58,0,0,0-3.63-3.09H365.9a3.58,3.58,0,0,0-3.63,3.09Z"/><path class="cls-15" d="M353.58,319.81a3.59,3.59,0,0,0-3.63-3.1h-20.3a3.59,3.59,0,0,0-3.63,3.1Z"/><rect class="cls-13" x="321.06" y="324.5" width="75.59" height="99.18"/><rect class="cls-17" x="321.06" y="319.81" width="75.59" height="4.69"/><path class="cls-13" d="M401.68,348.34h-6a2.43,2.43,0,0,1-2.49-2.35h0a2.42,2.42,0,0,1,2.49-2.34h6a2.42,2.42,0,0,1,2.49,2.34h0A2.43,2.43,0,0,1,401.68,348.34Z"/><rect class="cls-26" x="391.85" y="339.65" width="4.8" height="73.98"/><path class="cls-12" d="M415,251.39c.58-1.12,1-1.68.45-3a7.67,7.67,0,0,1,.68-6.21c2.16-3,3.27-2.91,3.27-2.91,3-.25,11.13,5.26,12,6.76a50,50,0,0,1,3.85,7.48A16.31,16.31,0,0,1,436,256a9.61,9.61,0,0,0,.6,1.17,43.86,43.86,0,0,1-8.95,4.81,4.16,4.16,0,0,0-2.46-2.13c-1.72.07-3.43,1.23-4.21,1.44-1.25.32-3.14-.16-3.22-1.27-.07-.84-.25-.83-.57-1s-.69-.39-.45-.89c-.51-.19-1.1-.27-.71-.88s.28-.94-.69-1.36c-.56-.24-1.93-.13-2-.81C413.32,254.2,414.63,252.11,415,251.39Z"/><path class="cls-23" d="M417.18,240.89a30.12,30.12,0,0,0,4.57,5.72,8.6,8.6,0,0,0,5.09,1.82c.69-1.82,2.06-2.32,2.81-2.15a3,3,0,0,1,2.09,2.42,7.65,7.65,0,0,1-.42,2.86,65.59,65.59,0,0,1,4.73,4.63c.21-1.56.64-2,1.88-3.74a10.29,10.29,0,0,0,1.7-7.34c-.38-2.9-1.67-5.38-5-7.79C431.74,235.19,424.41,232.77,417.18,240.89Z"/><polygon class="cls-14" points="418.67 227.14 443.57 231.5 440.38 247.52 415.49 243.16 418.67 227.14"/><path class="cls-10" d="M417.23,231.88s-6.24-6.74-1.67-9.9c7.33-5.06,11.84,2.35,20.84,1.5,4.69-.44,11.35,2.68,13.26,7s-2.22,11.1-9.75,8.57S420.87,237.26,417.23,231.88Z"/><path class="cls-15" d="M434.56,224.85s5.63,1,7.35,2.29a9.19,9.19,0,0,1,2.6,3.74,42.82,42.82,0,0,0-4.95-2.71A19.33,19.33,0,0,1,434.56,224.85Z"/><path class="cls-15" d="M432.53,224.85a8,8,0,0,1,2,3,6.86,6.86,0,0,1,0,3.95s-2.21-2.56-2.55-3.95A4.93,4.93,0,0,1,432.53,224.85Z"/><path class="cls-15" d="M427.09,223.78s-3.58-1.95-6.18-1.14a12.75,12.75,0,0,0-4.2,2.21s2.72.69,4.45,0S426,223.53,427.09,223.78Z"/><path class="cls-12" d="M429.53,292.43s1.21,14.62.62,19.43-5.18,13.36-1.69,24.5c1.12,3.6,8.12,3.93,8.12,3.93s5.53-32.3,0-38.9A111.28,111.28,0,0,1,429.53,292.43Z"/><path class="cls-13" d="M435.87,411.44s-12.92,5.89-16.5,8-2.2,4.21-2.2,4.21h26.12s.37-9.55-.37-11.62S435.87,411.44,435.87,411.44Z"/><rect class="cls-32" x="416.91" y="422.3" width="26.38" height="1.38"/><path class="cls-13" d="M452.3,411.44s-12.92,5.89-16.5,8-2.2,4.21-2.2,4.21h26.12s.37-9.55-.37-11.62S452.3,411.44,452.3,411.44Z"/><rect class="cls-32" x="433.34" y="422.3" width="26.38" height="1.38"/><polygon class="cls-33" points="428.66 413.63 429.62 343.65 445.18 351.5 447.15 413.63 428.66 413.63"/><polygon class="cls-17" points="443.99 413.63 440.24 343.65 455.67 349.56 461.66 413.63 443.99 413.63"/><path class="cls-13" d="M394.16,299.67a21.93,21.93,0,0,1,4.36-1.13c1.55-.1,2.15,1.68,0,2.57a27.52,27.52,0,0,1-5.49,1.68Z"/><path class="cls-13" d="M358.51,299.67a21.93,21.93,0,0,0-4.36-1.13c-1.54-.1-2.15,1.68,0,2.57a27.52,27.52,0,0,0,5.49,1.68Z"/><path class="cls-13" d="M361.39,296.49h29.32a3.34,3.34,0,0,1,3.34,3.34v16.89a0,0,0,0,1,0,0H358a0,0,0,0,1,0,0V299.83A3.34,3.34,0,0,1,361.39,296.49Z" transform="translate(752.1 613.21) rotate(-180)"/><path class="cls-13" d="M317,308.24h10.78c.87,0,2.36,1.13,3.21,1,.48-.06,1.43-1,1.43-1a1.05,1.05,0,0,0,1.16-.89h0a1.05,1.05,0,0,0-1.16-.88H317c-.65,0-1.17.4-1.17.88h0A1.06,1.06,0,0,0,317,308.24Z"/><path class="cls-14" d="M348,304.23v8.95a3.67,3.67,0,0,1-3.77,3.54h-9.51a3.67,3.67,0,0,1-3.78-3.54v-8.95Z"/><path class="cls-10" d="M330.77,305.16h17.38a1,1,0,0,0,1-.93h0a1,1,0,0,0-1-.92H330.77a1,1,0,0,0-1,.92h0A1,1,0,0,0,330.77,305.16Z"/><path class="cls-15" d="M358,297.19h36.41a1,1,0,0,0,1-.92h0a1,1,0,0,0-1-.93H358a1,1,0,0,0-1,.93h0A1,1,0,0,0,358,297.19Z"/><path class="cls-14" d="M436.58,257.12A143.59,143.59,0,0,1,450.13,271c5.73,7,7.05,21.88,8.37,28.74s.33,18.48.33,18.48l-22.65-1.5s-2.13-19.32-6.65-24.29c-3-3.33-5.66-4.64-4.56-12.37s2.33-15.89,2.33-15.89Z"/><path class="cls-20" d="M458.58,310.24c1.69.6,9.71,1.89,15.65,6.7s4.27,10.52-2.33,9.9S457.14,315,457.14,315v-2.61s6.76,8.67,11.67,10.49,8,.24,4.64-3.09-14.87-7.4-14.87-7.4Z"/><path class="cls-20" d="M457.78,310.59c1.52-.9,7.43-6.15,15.09-7.73s11.53,3.1,7,7.68-19,4-19,4l-2.22-1.57s11.44.12,15.93-2.47,5-5.87.15-5.34-15.22,6.73-15.22,6.73Z"/><path class="cls-34" d="M426.16,371.32c0-9.43,1.38-29.52,2.3-35a187,187,0,0,1,6.83-25.88l23.89-1.22s7,15.57,7.68,32.36c.41,10.55,1,22.37,1.3,29.7Z"/><path class="cls-14" d="M439.73,260.06l-1.87-4.62s-14.42,6.13-11.24,12.35C429.53,264.66,439.73,260.06,439.73,260.06Z"/><path class="cls-10" d="M382.86,271.23h23.67a4.68,4.68,0,0,1-8.38,1.19H382.86Z"/><path class="cls-12" d="M411,287.67s-14.42-7.13-18.38-9.69-6.42-6-8.07-7.5-5-1.84-5.56,2c-.86,5.53,1.73,7.61,6,10.17,2.56,1.51,19.14,13.65,19.14,13.65Z"/><path class="cls-34" d="M439.27,308.44s-6.16-15.78-7.34-20.73-1.66-23.11,9.45-26.09l-1.65-1.56a24.06,24.06,0,0,0-10.1,6c-3,3.09-5.18,8.23-6.18,13-3,14.15,11.42,29,11.42,29Z"/><path class="cls-14" d="M442,265.36c-4.54-1.4-9,4.12-14.86,10.95a58.84,58.84,0,0,1-13.73,11.36l-6.71-2.18-4.46,9.18s10.73,7.08,15.05,6.14S448,288.11,447,280.06A41.64,41.64,0,0,0,442,265.36Z"/><path class="cls-10" d="M433.68,293.34s7.5-3.24,9.89-9.13A94.44,94.44,0,0,0,447,272.87a26.61,26.61,0,0,1,.23,12.16c-1.48,6.32-12.67,10.8-12.67,10.8Z"/><rect class="cls-20" x="434.87" y="308.08" width="25.16" height="3.78" transform="translate(894.9 619.93) rotate(-180)"/><path class="cls-10" d="M412.37,285.57a28.84,28.84,0,0,1-2.16,6.08c-1.2,2-4.92,7.2-4.92,7.2l-5.83-4.11s2.77-5.88,3.54-7.73a7.57,7.57,0,0,1,4.12-4Z"/><path class="cls-15" d="M408.67,290.11s-1.13,2.58-2.14,4.33c-.73,1.27-2.88,1.83-2.88,1.83a23.25,23.25,0,0,1,1.81-3.84A10.32,10.32,0,0,1,408.67,290.11Z"/></g></g></svg>